<?xml version="1.0" encoding="UTF-8"?>
<svg width="355px" height="314px" viewBox="0 0 355 314" version="1.1" xmlns="http://www.w3.org/2000/svg" xmlns:xlink="http://www.w3.org/1999/xlink">
    <!-- Generator: Sketch 54 (76480) - https://sketchapp.com -->
    <title>ROBOT</title>
    <desc>Created with Sketch.</desc>
    <g id="Page-1" stroke="none" stroke-width="1" fill="none" fill-rule="evenodd">
        <g id="miCAPTCHA" transform="translate(-927.000000, -197.000000)" fill-rule="nonzero">
            <g id="ROBOT" transform="translate(920.000000, 195.000000)">
                <g id="Group-8">
                    <g id="Group">
                        <path d="M284.720662,110.783287 L284.720662,231.979094 C284.720662,240.887212 277.479665,248.093143 268.528196,248.093143 L101.130026,248.093143 C92.1785566,248.093143 84.9375595,240.887212 84.9375595,231.979094 L84.9375595,110.783287 C84.9375595,65.2781205 115.61202,26.9221444 157.518578,15.1203056 C166.184969,12.6805024 175.3645,11.3754913 184.829111,11.3754913 C194.293721,11.3754913 203.416237,12.6805024 212.139643,15.1203056 C221.262159,17.673588 229.871534,21.5318815 237.739704,26.4114879 C244.182481,30.4400002 250.112117,35.1493878 255.414579,40.4829111 C264.993221,50.0151655 272.633328,61.4765666 277.707728,74.2429788 C282.268986,85.5909007 284.720662,97.8466564 284.720662,110.783287 Z" id="Shape" stroke="#364551" stroke-width="9" fill="#FFFFFF"></path>
                        <path d="M281.755102,121.305389 L281.755102,191.064386 C281.755102,202.213323 227.445415,218.443553 184.0016,218.478303 C140.203973,218.513335 86.244898,202.335247 86.244898,191.064386 L86.244898,121.305389 L281.755102,121.305389 Z" id="Shape" stroke="#364551" stroke-width="4" fill="#F2F6FE"></path>
                        <g id="Group-2" transform="translate(150.204082, 207.377246)" fill="#C3F1FF" stroke="#364551" stroke-width="4">
                            <ellipse id="Oval-2" cx="7.51020408" cy="9.34131737" rx="7.51020408" ry="7.47305389"></ellipse>
                            <ellipse id="Oval-2-Copy" cx="60.0816327" cy="9.34131737" rx="7.51020408" ry="7.47305389"></ellipse>
                            <ellipse id="Oval-2-Copy-2" cx="33.7959184" cy="9.34131737" rx="9.3877551" ry="9.34131737"></ellipse>
                        </g>
                        <g id="Group-4" transform="translate(283.510204, 0.000000)">
                            <path d="M8.96459671,210.928698 C29.9463837,210.928698 46.93707,194.020295 46.93707,173.140118 L46.93707,42.488096 L62.1602687,42.488096 L62.1602687,175.920359 C62.1602687,202.644715 40.3232458,224.262507 13.468839,224.092288 L1.21045803,224.035548 L1.21045803,210.928698 L8.96459671,210.928698 Z" id="Shape" stroke="#364551" stroke-width="9" fill="#FFFFFF"></path>
                            <path d="M11.5303044,237.028919 L1.21045803,237.028919 L1.21045803,194.587691 L11.5303044,194.587691 C18.6572701,194.587691 24.3588426,200.318391 24.3588426,207.354103 L24.3588426,224.205767 C24.4158584,231.298218 18.6572701,237.028919 11.5303044,237.028919 Z" id="Shape" stroke="#364551" stroke-width="9" fill="#F2F6FE"></path>
                            <path d="M37.3014124,39.8755146 C27.9508333,30.3999998 28.1218805,15.2505241 37.6435067,5.94522808 L44.029268,12.4135436 C38.0996325,18.2009838 38.0426168,27.619759 43.8582208,33.5206784 C49.6738248,39.4215978 59.1384353,39.4783374 65.011055,33.7476368 C70.9406905,27.9601966 70.9977062,18.5414214 65.2391179,12.6972416 C65.011055,12.4702832 64.7259764,12.1865851 64.4979135,12.0163663 L71.0547219,5.66153003 C71.3398006,5.88848847 71.5678635,6.11544691 71.7959264,6.39914495 C81.0894896,15.8746598 80.9184425,31.0241355 71.453832,40.2726919 C61.8751901,49.4645087 46.6519914,49.3510295 37.3014124,39.8755146 Z" id="Shape" fill="#364551" transform="translate(54.527292, 26.368596) rotate(-15.000000) translate(-54.527292, -26.368596) "></path>
                            <ellipse id="Oval" stroke="#364551" stroke-width="9" fill="#F2F6FE" cx="51.8404224" cy="184.374561" rx="18.5301108" ry="18.4403731"></ellipse>
                        </g>
                        <g id="Group-4-Copy" transform="translate(42.489796, 138.101796) scale(-1, 1) translate(-42.489796, -138.101796) translate(0.489796, 39.101796)">
                            <path d="M8.96459671,171.826902 C29.9463837,171.826902 46.93707,154.918498 46.93707,134.038322 L46.93707,42.3183541 L62.1602687,42.3183541 L62.1602687,136.818563 C62.1602687,163.542919 40.3232458,185.16071 13.468839,184.990491 L1.21045803,184.933752 L1.21045803,171.826902 L8.96459671,171.826902 Z" id="Shape" stroke="#364551" stroke-width="9" fill="#FFFFFF"></path>
                            <path d="M11.5303044,197.927122 L1.21045803,197.927122 L1.21045803,155.485894 L11.5303044,155.485894 C18.6572701,155.485894 24.3588426,161.216595 24.3588426,168.252307 L24.3588426,185.103971 C24.4158584,192.196422 18.6572701,197.927122 11.5303044,197.927122 Z" id="Shape" stroke="#364551" stroke-width="9" fill="#F2F6FE"></path>
                            <path d="M36.9481541,39.818775 C27.5975751,30.3432602 27.7686223,15.1937844 37.2902484,5.88848847 L43.6760097,12.356804 C37.7463742,18.1442441 37.6893585,27.5630193 43.5049625,33.4639388 C49.3205665,39.3648582 58.785177,39.4215978 64.6577967,33.6908972 C70.5874322,27.903457 70.6444479,18.4846818 64.8858596,12.640502 C64.6577967,12.4135436 64.3727181,12.1298455 64.1446552,11.9596267 L70.7014637,5.60479042 C70.9865423,5.83174886 71.2146052,6.0587073 71.4426681,6.34240534 C80.7362314,15.8179202 80.5651842,30.9673959 71.1005737,40.2159523 C61.5219318,49.4077691 46.2987331,49.2942898 36.9481541,39.818775 Z" id="Shape" fill="#364551" transform="translate(54.174034, 26.311857) rotate(-15.000000) translate(-54.174034, -26.311857) "></path>
                            <ellipse id="Oval" stroke="#364551" stroke-width="9" fill="#F2F6FE" cx="51.8404224" cy="145.272765" rx="18.5301108" ry="18.4403731"></ellipse>
                        </g>
                    </g>
                    <g id="Group-6" transform="translate(150.204082, 87.808383)" stroke="#364551">
                        <rect id="Rectangle-4-Copy" stroke-width="9" fill="#FFFFFF" x="4.5" y="4.5" width="58.5918367" height="58.257485" rx="29.1287425"></rect>
                        <rect id="Rectangle-4" stroke-width="4" fill="#C3F1FF" x="20.3061224" y="20.2155689" width="28.3877551" height="28.2275449" rx="14.1137725"></rect>
                    </g>
                </g>
                <g id="Group-5" transform="translate(108.775510, 248.479042)" stroke="#364551">
                    <g id="Group-3" transform="translate(3.877551, 0.000000)">
                        <path d="M8.62405434,4.5 L4.92011938,45.9431138 L32.6820681,45.9431138 L36.3860031,4.5 L8.62405434,4.5 Z" id="Rectangle-5" stroke-width="9" fill="#F2F6FE"></path>
                        <path d="M5.63265306,42.9700599 L33.7959184,44.8383234" id="Path-2-Copy-5" stroke-width="3.74"></path>
                        <path d="M5.63265306,15.0778443 L33.7959184,16.9461078" id="Path-2" stroke-width="4"></path>
                        <path d="M5.63265306,26.2874251 L33.7959184,28.1556886" id="Path-2-Copy-2" stroke-width="4"></path>
                        <path d="M5.63265306,35.497006 L33.7959184,37.3652695" id="Path-2-Copy-4" stroke-width="3.74"></path>
                        <path d="M9.3877551,5.60479042 L37.5510204,7.47305389" id="Path-2-Copy-6" stroke-width="3.74"></path>
                    </g>
                    <g id="Group-3-Copy" transform="translate(127.448980, 26.000000) scale(-1, 1) translate(-127.448980, -26.000000) translate(106.448980, 0.000000)">
                        <path d="M8.62405434,4.5 L4.92011938,45.9431138 L32.6820681,45.9431138 L36.3860031,4.5 L8.62405434,4.5 Z" id="Rectangle-5" stroke-width="9" fill="#F2F6FE"></path>
                        <path d="M5.63265306,42.9700599 L33.7959184,44.8383234" id="Path-2-Copy-5" stroke-width="3.74"></path>
                        <path d="M5.63265306,15.0778443 L33.7959184,16.9461078" id="Path-2" stroke-width="4"></path>
                        <path d="M5.63265306,26.2874251 L33.7959184,28.1556886" id="Path-2-Copy-2" stroke-width="4"></path>
                        <path d="M5.63265306,35.497006 L33.7959184,37.3652695" id="Path-2-Copy-4" stroke-width="3.74"></path>
                        <path d="M9.3877551,5.60479042 L37.5510204,7.47305389" id="Path-2-Copy-6" stroke-width="3.74"></path>
                    </g>
                    <path d="M129.190548,72.3159743 L118.870702,72.3159743 L118.870702,29.8747463 L129.190548,29.8747463 C136.317514,29.8747463 142.019086,35.6054468 142.019086,42.6411584 L142.019086,59.4928225 C142.076102,66.5852737 136.317514,72.3159743 129.190548,72.3159743 Z" id="Shape" stroke-width="9" fill="#FFFFFF" transform="translate(130.445104, 51.095360) rotate(-90.000000) translate(-130.445104, -51.095360) "></path>
                    <path d="M21.190548,72.3159743 L10.8707016,72.3159743 L10.8707016,29.8747463 L21.190548,29.8747463 C28.3175137,29.8747463 34.0190862,35.6054468 34.0190862,42.6411584 L34.0190862,59.4928225 C34.076102,66.5852737 28.3175137,72.3159743 21.190548,72.3159743 Z" id="Shape-Copy" stroke-width="9" fill="#FFFFFF" transform="translate(22.445104, 51.095360) rotate(-90.000000) translate(-22.445104, -51.095360) "></path>
                </g>
            </g>
        </g>
    </g>
</svg>