<?xml version="1.0" encoding="UTF-8"?>
<svg width="1233px" height="516px" viewBox="0 0 1233 516" version="1.1" xmlns="http://www.w3.org/2000/svg" xmlns:xlink="http://www.w3.org/1999/xlink">
    <!-- Generator: Sketch 54.1 (76490) - https://sketchapp.com -->
    <title>Group 19</title>
    <desc>Created with Sketch.</desc>
    <g id="Page-1" stroke="none" stroke-width="1" fill="none" fill-rule="evenodd">
        <g id="miCAPTCHA" transform="translate(-177.000000, -154.000000)" fill-rule="nonzero">
            <g id="Background" transform="translate(106.000000, -73.000000)">
                <g id="Group-20">
                    <g id="Group-19" transform="translate(74.000000, 230.000000)">
                        <g id="Group-18" transform="translate(1078.000000, 344.000000)" opacity="0.2">
                            <ellipse id="Oval-4" stroke="#44AACC" stroke-width="5" cx="8.38679245" cy="8.45283019" rx="8.38679245" ry="8.45283019"></ellipse>
                            <ellipse id="Oval-4-Copy" stroke="#FFFFFF" stroke-width="6" fill="#FFFFFF" cx="131.792453" cy="125.584906" rx="2.39622642" ry="2.41509434"></ellipse>
                        </g>
                        <g id="Group-18-Copy" transform="translate(321.000000, 442.000000) rotate(164.000000) translate(-321.000000, -442.000000) translate(192.000000, 378.000000)">
                            <ellipse id="Oval-4" stroke="#44AACC" stroke-width="5" opacity="0.2" cx="8.38679245" cy="8.45283019" rx="8.38679245" ry="8.45283019"></ellipse>
                            <ellipse id="Oval-4-Copy" stroke="#FFFFFF" stroke-width="6" fill="#FFFFFF" opacity="0.2" cx="131.792453" cy="125.584906" rx="2.39622642" ry="2.41509434"></ellipse>
                            <path d="M244.415094,28.6121808 L247.773114,25.2277205 C249.1976,23.7920177 251.507149,23.7920177 252.931635,25.2277205 C254.356122,26.6634234 254.356122,28.9911576 252.931635,30.4268605 L249.573616,33.8113208 L252.931635,37.195781 C254.356122,38.6314839 254.356122,40.9592181 252.931635,42.394921 C251.507149,43.8306238 249.1976,43.8306238 247.773114,42.394921 L244.415094,39.0104607 L241.057075,42.394921 C239.632589,43.8306238 237.32304,43.8306238 235.898553,42.394921 C234.474067,40.9592181 234.474067,38.6314839 235.898553,37.195781 L239.256573,33.8113208 L235.898553,30.4268605 C234.474067,28.9911576 234.474067,26.6634234 235.898553,25.2277205 C237.32304,23.7920177 239.632589,23.7920177 241.057075,25.2277205 L244.415094,28.6121808 Z" id="Combined-Shape" fill="#FFFFFF" opacity="0.204966518" transform="translate(244.415094, 33.811321) rotate(-345.000000) translate(-244.415094, -33.811321) "></path>
                        </g>
                        <g id="Group-18" transform="translate(1092.000000, 16.000000)" opacity="0.2" stroke="#FFFFFF">
                            <ellipse id="Oval-4" stroke-width="5" cx="8.38679245" cy="8.45283019" rx="8.38679245" ry="8.45283019"></ellipse>
                            <ellipse id="Oval-4-Copy" stroke-width="6" fill="#FFFFFF" cx="131.792453" cy="125.584906" rx="2.39622642" ry="2.41509434"></ellipse>
                        </g>
                        <g id="Group-18" transform="translate(402.000000, 0.000000)">
                            <ellipse id="Oval-4" stroke="#FFFFFF" stroke-width="5" opacity="0.2" cx="8.38679245" cy="8.45283019" rx="8.38679245" ry="8.45283019"></ellipse>
                            <ellipse id="Oval-4-Copy" stroke="#FFFFFF" stroke-width="6" fill="#FFFFFF" opacity="0.2" cx="131.792453" cy="125.584906" rx="2.39622642" ry="2.41509434"></ellipse>
                            <path d="M244.415094,28.6121808 L247.773114,25.2277205 C249.1976,23.7920177 251.507149,23.7920177 252.931635,25.2277205 C254.356122,26.6634234 254.356122,28.9911576 252.931635,30.4268605 L249.573616,33.8113208 L252.931635,37.195781 C254.356122,38.6314839 254.356122,40.9592181 252.931635,42.394921 C251.507149,43.8306238 249.1976,43.8306238 247.773114,42.394921 L244.415094,39.0104607 L241.057075,42.394921 C239.632589,43.8306238 237.32304,43.8306238 235.898553,42.394921 C234.474067,40.9592181 234.474067,38.6314839 235.898553,37.195781 L239.256573,33.8113208 L235.898553,30.4268605 C234.474067,28.9911576 234.474067,26.6634234 235.898553,25.2277205 C237.32304,23.7920177 239.632589,23.7920177 241.057075,25.2277205 L244.415094,28.6121808 Z" id="Combined-Shape" fill="#44AACC" opacity="0.204966518"></path>
                        </g>
                        <g id="Group-18" transform="translate(0.000000, 98.000000)" opacity="0.2">
                            <ellipse id="Oval-4" stroke="#44AACC" stroke-width="5" cx="8.38679245" cy="8.45283019" rx="8.38679245" ry="8.45283019"></ellipse>
                            <ellipse id="Oval-4-Copy" stroke="#FFFFFF" stroke-width="6" fill="#FFFFFF" cx="49.7924528" cy="125.584906" rx="2.39622642" ry="2.41509434"></ellipse>
                        </g>
                    </g>
                </g>
            </g>
        </g>
    </g>
</svg>